# xmcd
#
# Track frame offsets: 
#        169
#        26557
#        48440
#        70524
#        86039
#        107723
#        135959
#        149896
#        162082
#
# Disc length: 2405 seconds
#
# Revision: 0
# Processed by: cddbd v1.5.2PL0 Copyright (c) Steve Scherf et al.
# Submitted via: ExactAudioCopy v1.0b4
#
DISCID=76096309
DTITLE=Mark Sells Band - Missin' You
DYEAR=2012
DGENRE=Blues
TTITLE0=Missin' You
TTITLE1=So Cold
TTITLE2=Rock N' Hard Place
TTITLE3=Bye-Bye
TTITLE4=Before I Met You
TTITLE5=One Way Street
TTITLE6=Movin' On
TTITLE7=Mark's Groove
TTITLE8=Trials And Troubles
EXTD=
EXTT0=
EXTT1=
EXTT2=
EXTT3=
EXTT4=
EXTT5=
EXTT6=
EXTT7=
EXTT8=
PLAYORDER=
